<?xml version="1.0" encoding="UTF-8" standalone="no"?>
<!-- Created with Inkscape (http://www.inkscape.org/) -->

<svg
   width="135.46666mm"
   height="135.46667mm"
   viewBox="0 0 135.46666 135.46667"
   version="1.1"
   id="svg5"
   inkscape:version="1.1.2 (b8e25be833, 2022-02-05)"
   sodipodi:docname="logo_color.svg"
   xmlns:inkscape="http://www.inkscape.org/namespaces/inkscape"
   xmlns:sodipodi="http://sodipodi.sourceforge.net/DTD/sodipodi-0.dtd"
   xmlns:xlink="http://www.w3.org/1999/xlink"
   xmlns="http://www.w3.org/2000/svg"
   xmlns:svg="http://www.w3.org/2000/svg">
  <sodipodi:namedview
     id="namedview7"
     pagecolor="#505050"
     bordercolor="#ffffff"
     borderopacity="1"
     inkscape:pageshadow="0"
     inkscape:pageopacity="0"
     inkscape:pagecheckerboard="1"
     inkscape:document-units="mm"
     showgrid="false"
     inkscape:snap-global="false"
     inkscape:snap-object-midpoints="true"
     inkscape:zoom="1"
     inkscape:cx="231.5"
     inkscape:cy="267"
     inkscape:window-width="1920"
     inkscape:window-height="1129"
     inkscape:window-x="1912"
     inkscape:window-y="-8"
     inkscape:window-maximized="1"
     inkscape:current-layer="layer1">
    <inkscape:grid
       type="xygrid"
       id="grid9"
       originx="-0.19843745"
       originy="-291.4964" />
  </sodipodi:namedview>
  <defs
     id="defs2">
    <linearGradient
       inkscape:collect="always"
       id="linearGradient11700">
      <stop
         style="stop-color:#ff6f00;stop-opacity:1"
         offset="0"
         id="stop11696" />
      <stop
         style="stop-color:#ff007b;stop-opacity:1"
         offset="1"
         id="stop11698" />
    </linearGradient>
    <linearGradient
       inkscape:collect="always"
       xlink:href="#linearGradient11700"
       id="linearGradient11702"
       x1="16.602604"
       y1="307.90057"
       x2="120.05468"
       y2="409.50058"
       gradientUnits="userSpaceOnUse" />
  </defs>
  <g
     inkscape:label="Layer 1"
     inkscape:groupmode="layer"
     id="layer1"
     transform="translate(-0.19843746,-291.49642)">
    <g
       id="path2567"
       inkscape:transform-center-x="-0.014385152"
       inkscape:transform-center-y="0.02321585"
       transform="matrix(0.24884867,0.08988145,-0.08988145,0.24884867,98.975405,16.088516)" />
    <path
       id="path517"
       style="color:#000000;fill:url(#linearGradient11702);stroke-width:25.6;-inkscape-stroke:none;fill-opacity:1"
       d="m 67.93177,291.49642 c -37.408091,0 -67.73333254,30.32554 -67.73333254,67.73333 0,37.40779 30.32524154,67.73333 67.73333254,67.73333 37.40809,0 67.73333,-30.32554 67.73333,-67.73333 0,-37.40779 -30.32524,-67.73333 -67.73333,-67.73333 z m 0,13.54646 c 10.275168,0.006 20.336983,2.93298 29.011665,8.44031 -13.380833,12.68789 -22.063434,27.12668 -25.942602,43.41802 -0.163584,0.68609 -0.302871,1.38516 -0.449585,2.07636 -1.022591,0.2048 -2.044187,0.39383 -3.056144,0.62167 -7.643625,1.71891 -14.965595,4.3581 -21.800219,7.79797 l -0.0093,-0.0181 -2.156457,-4.19405 c -1.502653,-2.33183 -4.484873,-2.33759 -5.860624,-0.28939 l -12.078332,18.77146 c -1.399194,2.19136 0.08816,5.07949 2.685624,5.21312 l 22.27771,1.0852 c 2.616726,0.128 4.392969,-2.62045 3.188435,-4.94698 l -2.174028,-4.23023 c 5.394727,-2.69635 11.15672,-4.82154 17.171046,-6.30143 -0.19603,3.22961 -0.236098,6.52383 -0.135393,9.8764 l -4.587833,0.20154 c -2.613805,0.128 -4.103359,3.01811 -2.698543,5.22552 l 11.972396,18.81229 c 1.405567,2.20417 4.672142,2.05838 5.873543,-0.26355 L 89.45552,386.54798 c 1.041972,-2.56924 -0.680638,-4.9893 -3.135209,-4.93458 l -4.855516,0.20464 -0.07338,0.003 c -0.109837,-3.96032 0.01648,-7.77702 0.364836,-11.4639 12.269387,-1.0368 25.151009,0.57597 37.782189,5.38417 -7.17511,22.44945 -28.03825,37.68688 -51.606668,37.69021 -31.632874,0.004 -54.36187,-25.64743 -54.095923,-53.75486 17.161968,2.62283 32.427257,-1.76626 42.64029,-11.81168 3.26757,-3.2136 5.922362,-6.97912 7.98866,-11.14144 l 4.904095,1.00046 c 2.565616,0.52736 4.73539,-1.9216 3.902604,-4.40593 l -7.09104,-21.15272 c -0.736409,-2.57383 -4.074761,-3.06032 -5.741253,-1.1777 l -14.790311,16.70854 c -1.727615,1.95585 -0.691666,5.04872 1.865519,5.56968 l 3.848862,0.78497 c -1.128371,1.70587 -2.405732,3.27096 -3.830259,4.67206 -7.117104,6.99944 -18.20259,10.61672 -32.240925,8.26255 5.669077,-24.43901 27.43402,-41.86306 52.639681,-41.92819 z m 38.98625,16.55868 v 0.004 c 9.74862,10.09895 15.19818,23.58756 15.20062,37.62405 -0.005,1.25696 -0.0538,2.51669 -0.14572,3.77032 -11.26179,-4.00589 -22.715905,-5.85056 -33.879591,-5.76813 -1.336755,0 -2.668,0.077 -3.995621,0.12816 3.657235,-13.27348 10.946971,-24.92166 22.820312,-35.75841 z" />
  </g>
</svg>
