<?xml version="1.0" encoding="UTF-8" standalone="no"?>
<!-- Created with Inkscape (http://www.inkscape.org/) -->

<svg
   width="135.46666mm"
   height="135.46667mm"
   viewBox="0 0 135.46666 135.46667"
   version="1.1"
   id="svg5"
   inkscape:version="1.1.2 (b8e25be833, 2022-02-05)"
   sodipodi:docname="logo.svg"
   inkscape:export-filename="C:\Users\David\Projects\rel\media\logo.png"
   inkscape:export-xdpi="96"
   inkscape:export-ydpi="96"
   xmlns:inkscape="http://www.inkscape.org/namespaces/inkscape"
   xmlns:sodipodi="http://sodipodi.sourceforge.net/DTD/sodipodi-0.dtd"
   xmlns="http://www.w3.org/2000/svg"
   xmlns:svg="http://www.w3.org/2000/svg">
  <sodipodi:namedview
     id="namedview7"
     pagecolor="#505050"
     bordercolor="#ffffff"
     borderopacity="1"
     inkscape:pageshadow="0"
     inkscape:pageopacity="0"
     inkscape:pagecheckerboard="1"
     inkscape:document-units="mm"
     showgrid="false"
     inkscape:snap-global="false"
     inkscape:snap-object-midpoints="true"
     inkscape:zoom="1"
     inkscape:cx="453.5"
     inkscape:cy="306"
     inkscape:window-width="1920"
     inkscape:window-height="1129"
     inkscape:window-x="-8"
     inkscape:window-y="-8"
     inkscape:window-maximized="1"
     inkscape:current-layer="layer1">
    <inkscape:grid
       type="xygrid"
       id="grid9"
       originx="-0.19843745"
       originy="-291.4964" />
  </sodipodi:namedview>
  <defs
     id="defs2" />
  <g
     inkscape:label="Layer 1"
     inkscape:groupmode="layer"
     id="layer1"
     transform="translate(-0.19843746,-291.49642)">
    <path
       id="path517"
       style="color:#000000;fill:#000000;stroke-width:96.7559;-inkscape-stroke:none"
       d="M 256 0 C 114.61509 0 0 114.61623 0 256 C 0 397.38377 114.61509 512 256 512 C 397.3849 512 512 397.38377 512 256 C 512 114.61623 397.3849 0 256 0 z M 256 51.199219 C 294.83528 51.221899 332.86419 62.284505 365.65039 83.099609 C 315.07716 131.05384 282.26103 185.62565 267.59961 247.19922 C 266.98134 249.79231 266.4549 252.43447 265.90039 255.04688 C 262.03548 255.82091 258.17433 256.53536 254.34961 257.39648 C 225.46032 263.89317 197.78673 273.86804 171.95508 286.86914 L 171.91992 286.80078 L 163.76953 270.94922 C 158.09021 262.13603 146.81883 262.11424 141.61914 269.85547 L 95.96875 340.80273 C 90.680458 349.08504 96.301974 360.0008 106.11914 360.50586 L 190.31836 364.60742 C 200.20835 365.0912 206.92171 354.70334 202.36914 345.91016 L 194.15234 329.92188 C 214.54186 319.73097 236.31947 311.69874 259.05078 306.10547 C 258.30988 318.31184 258.15844 330.76245 258.53906 343.43359 L 241.19922 344.19531 C 231.32027 344.67909 225.69046 355.60235 231 363.94531 L 276.25 435.04688 C 281.56238 443.37759 293.90849 442.82658 298.44922 434.05078 L 337.34961 359.25 C 341.28777 349.53948 334.77712 340.39279 325.5 340.59961 L 307.14844 341.37305 L 306.87109 341.38477 C 306.45596 326.41661 306.93339 311.99128 308.25 298.05664 C 354.62249 294.13803 403.30894 300.23353 451.04883 318.40625 C 423.9303 403.25455 345.07749 460.84484 256 460.85742 C 136.44268 460.8743 50.537815 363.92226 51.542969 257.68945 C 116.4071 267.60248 174.10268 251.01381 212.70312 213.04688 C 225.05299 200.90097 235.08685 186.66908 242.89648 170.9375 L 261.43164 174.71875 C 271.12846 176.71192 279.32918 167.456 276.18164 158.06641 L 249.38086 78.119141 C 246.59758 68.391279 233.98019 66.552555 227.68164 73.667969 L 171.78125 136.81836 C 165.25168 144.21055 169.16708 155.90016 178.83203 157.86914 L 193.37891 160.83594 C 189.1142 167.28332 184.28638 173.19864 178.90234 178.49414 C 152.00305 204.94871 110.10515 218.62033 57.046875 209.72266 C 78.473307 117.35474 160.73451 51.500084 256 51.253906 L 256 51.199219 z M 403.34961 113.7832 L 403.34961 113.79883 C 440.19479 151.96809 460.79156 202.9487 460.80078 256 C 460.78188 260.75071 460.59738 265.51187 460.25 270.25 C 417.68579 255.10963 374.39463 248.13767 332.20117 248.44922 C 327.14887 248.44922 322.11739 248.74008 317.09961 248.93359 C 330.92223 198.76562 358.47399 154.741 403.34961 113.7832 z "
       transform="matrix(0.26458333,0,0,0.26458333,0.19843746,291.49642)" />
    <g
       id="path2567"
       inkscape:transform-center-x="-0.014385152"
       inkscape:transform-center-y="0.02321585"
       transform="matrix(0.24884867,0.08988145,-0.08988145,0.24884867,98.975405,16.088516)" />
  </g>
</svg>
