<?xml version="1.0" encoding="UTF-8" standalone="no"?>
<!-- Created with Inkscape (http://www.inkscape.org/) -->

<svg
   width="71.4375mm"
   height="29.011721mm"
   viewBox="0 0 71.437497 29.011721"
   version="1.1"
   id="svg5"
   inkscape:version="1.1.2 (b8e25be833, 2022-02-05)"
   sodipodi:docname="logo_text_color.svg"
   xmlns:inkscape="http://www.inkscape.org/namespaces/inkscape"
   xmlns:sodipodi="http://sodipodi.sourceforge.net/DTD/sodipodi-0.dtd"
   xmlns:xlink="http://www.w3.org/1999/xlink"
   xmlns="http://www.w3.org/2000/svg"
   xmlns:svg="http://www.w3.org/2000/svg">
  <sodipodi:namedview
     id="namedview7"
     pagecolor="#505050"
     bordercolor="#ffffff"
     borderopacity="1"
     inkscape:pageshadow="0"
     inkscape:pageopacity="0"
     inkscape:pagecheckerboard="1"
     inkscape:document-units="mm"
     showgrid="false"
     inkscape:snap-global="true"
     inkscape:snap-object-midpoints="true"
     inkscape:zoom="0.70710678"
     inkscape:cx="478.71129"
     inkscape:cy="301.22749"
     inkscape:window-width="1920"
     inkscape:window-height="1129"
     inkscape:window-x="-8"
     inkscape:window-y="-8"
     inkscape:window-maximized="1"
     inkscape:current-layer="layer1">
    <inkscape:grid
       type="xygrid"
       id="grid9"
       originx="-0.19843662"
       originy="-291.49498" />
  </sodipodi:namedview>
  <defs
     id="defs2">
    <linearGradient
       inkscape:collect="always"
       id="linearGradient43012">
      <stop
         style="stop-color:#ff6f00;stop-opacity:1"
         offset="0"
         id="stop43008" />
      <stop
         style="stop-color:#ff007b;stop-opacity:1"
         offset="1"
         id="stop43010" />
    </linearGradient>
    <rect
       x="1000"
       y="544"
       width="500"
       height="320"
       id="rect32195" />
    <rect
       x="-196"
       y="542"
       width="3336"
       height="2328"
       id="rect6307" />
    <linearGradient
       inkscape:collect="always"
       xlink:href="#linearGradient43012"
       id="linearGradient43014"
       x1="84.388351"
       y1="310.95221"
       x2="114.6967"
       y2="424.70209"
       gradientUnits="userSpaceOnUse" />
    <linearGradient
       inkscape:collect="always"
       xlink:href="#linearGradient43012"
       id="linearGradient67292"
       gradientUnits="userSpaceOnUse"
       x1="84.388351"
       y1="310.95221"
       x2="114.6967"
       y2="424.70209" />
    <linearGradient
       inkscape:collect="always"
       xlink:href="#linearGradient43012"
       id="linearGradient67294"
       gradientUnits="userSpaceOnUse"
       x1="84.388351"
       y1="310.95221"
       x2="114.6967"
       y2="424.70209" />
    <linearGradient
       inkscape:collect="always"
       xlink:href="#linearGradient43012"
       id="linearGradient67296"
       gradientUnits="userSpaceOnUse"
       x1="84.388351"
       y1="310.95221"
       x2="114.6967"
       y2="424.70209" />
    <linearGradient
       inkscape:collect="always"
       xlink:href="#linearGradient43012"
       id="linearGradient67298"
       gradientUnits="userSpaceOnUse"
       x1="84.388351"
       y1="310.95221"
       x2="114.6967"
       y2="424.70209" />
  </defs>
  <g
     inkscape:label="Layer 1"
     inkscape:groupmode="layer"
     id="layer1"
     transform="translate(-0.19843666,-291.49499)">
    <g
       id="path2567"
       inkscape:transform-center-x="-0.014385152"
       inkscape:transform-center-y="0.02321585"
       transform="matrix(0.24884867,0.08988145,-0.08988145,0.24884867,98.975405,16.088516)" />
    <g
       id="g10755"
       style="fill:url(#linearGradient43014);fill-opacity:1"
       inkscape:export-filename="C:\Users\David\Desktop\rel\media\logo_text_color.png"
       inkscape:export-xdpi="20.559999"
       inkscape:export-ydpi="20.559999"
       transform="matrix(0.21416134,0,0,0.21416134,0.1559392,229.06803)">
      <path
         d="m 207.13905,351.72622 q 0,4.20455 -2.06101,7.50209 -2.06101,3.21511 -6.34789,3.21511 -4.61665,0 -7.08985,-2.39104 -2.39076,-2.39105 -2.39076,-5.27617 0,-1.81504 0.24729,-3.29754 0.32976,-1.4848 0.57708,-2.96781 -3.87468,0 -9.06841,3.13268 -5.19373,3.13267 -8.82109,8.90343 v 47.32064 q 0,2.88537 1.07172,4.69914 1.15415,1.81504 3.54492,2.72051 2.06101,0.82432 5.27617,1.23648 3.2976,0.41216 5.68837,0.576 v 5.44104 h -42.86882 v -5.44104 q 1.89611,-0.1536 3.87468,-0.33024 2.06101,-0.1536 3.54492,-0.66048 2.30833,-0.7424 3.38005,-2.55488 1.15415,-1.89696 1.15415,-4.86375 v -50.20601 q 0,-2.55489 -1.23661,-5.02887 -1.15415,-2.47297 -3.2976,-3.95726 -1.56636,-0.98816 -3.7098,-1.40032 -2.14344,-0.49408 -4.61665,-0.66048 v -5.3586 l 27.04035,-1.81248 1.15416,1.15456 v 11.45909 h 0.41218 q 5.11129,-6.67752 11.37674,-10.13992 6.26544,-3.46266 11.45917,-3.46266 5.19373,0 8.40889,3.38023 3.29761,3.37997 3.29761,9.0683 z"
         style="font-size:6.5952px;line-height:1.25;font-family:Georgia;-inkscape-font-specification:Georgia;fill:url(#linearGradient67292);fill-opacity:1;stroke-width:4.22096"
         id="path46210" />
      <path
         d="m 286.28155,403.41627 q -5.11128,9.72776 -13.68506,15.49852 -8.57376,5.77101 -19.7032,5.77101 -9.81036,0 -17.22997,-3.46266 -7.33717,-3.4624 -12.11869,-9.39803 -4.78153,-5.93588 -7.17229,-13.85013 -2.30833,-7.91424 -2.30833,-16.73525 0,-7.91425 2.47319,-15.49877 2.55565,-7.66695 7.41961,-13.76744 4.69909,-5.85319 11.62406,-9.39828 7.00741,-3.62727 15.6636,-3.62727 8.90354,0 15.25143,2.80294 6.34788,2.80295 10.30501,7.66696 3.79223,4.61671 5.60592,10.88206 1.89619,6.26561 1.89619,13.60258 v 5.44103 H 230.4696 q 0,7.99668 1.48393,14.50958 1.56636,6.51265 4.86397,11.45909 3.21516,4.78157 8.40889,7.58452 5.19372,2.72052 12.36599,2.72052 7.33718,0 12.61335,-3.37998 5.35859,-3.4624 10.30501,-12.36609 z m -18.21926,-30.99754 q 0,-4.61671 -0.82433,-9.89288 -0.74188,-5.27616 -2.47321,-8.821 -1.8962,-3.79239 -5.19371,-6.18318 -3.29762,-2.39104 -8.49134,-2.39104 -8.65621,0 -14.42702,7.25479 -5.68837,7.17236 -6.18301,20.03305 z"
         style="font-size:6.5952px;line-height:1.25;font-family:Georgia;-inkscape-font-specification:Georgia;fill:url(#linearGradient67294);fill-opacity:1;stroke-width:4.22096"
         id="path46212" />
      <path
         d="m 333.76705,422.54231 h -39.65369 v -5.44103 q 1.8962,-0.1536 4.03956,-0.33024 2.14349,-0.256 3.54491,-0.66048 2.30836,-0.7424 3.46251,-2.55488 1.15405,-1.89697 1.15405,-4.86375 v -94.14668 q 0,-2.96781 -1.31891,-5.52346 -1.23674,-2.63809 -3.29762,-4.12212 -1.48378,-0.98816 -5.44103,-1.81248 -3.95713,-0.82432 -6.34789,-0.99072 v -5.27617 l 30.58528,-1.89696 1.15405,1.23648 v 111.54139 q 0,2.88537 1.07162,4.78157 1.07162,1.81504 3.46248,2.80295 1.81376,0.82432 3.54494,1.23648 1.81376,0.41216 4.03956,0.576 z"
         style="font-size:6.5952px;line-height:1.25;font-family:Georgia;-inkscape-font-specification:Georgia;fill:url(#linearGradient67296);fill-opacity:1;stroke-width:4.22096"
         id="path46214" />
      <path
         id="path517"
         style="color:#000000;fill:url(#linearGradient67298);fill-opacity:1;stroke-width:25.6;-inkscape-stroke:none"
         d="m 67.931769,291.49498 c -37.40809,0 -67.73333234,30.32554 -67.73333234,67.73333 0,37.40779 30.32524234,67.73333 67.73333234,67.73333 37.408091,0 67.733331,-30.32554 67.733331,-67.73333 0,-37.40779 -30.32524,-67.73333 -67.733331,-67.73333 z m 0,13.54646 c 10.275168,0.006 20.336988,2.93298 29.011668,8.44031 -13.380836,12.68789 -22.063437,27.12668 -25.942604,43.41802 -0.163584,0.68609 -0.302871,1.38516 -0.449585,2.07636 -1.022591,0.2048 -2.044187,0.39383 -3.056144,0.62167 -7.643625,1.71891 -14.965595,4.3581 -21.800219,7.79797 l -0.0093,-0.0181 -2.156457,-4.19405 c -1.502653,-2.33183 -4.484873,-2.33759 -5.860624,-0.28939 l -12.078332,18.77146 c -1.399194,2.19136 0.08816,5.07949 2.685624,5.21312 l 22.27771,1.0852 c 2.616726,0.128 4.392969,-2.62045 3.188435,-4.94698 l -2.174028,-4.23023 c 5.394727,-2.69635 11.15672,-4.82154 17.171045,-6.30143 -0.196029,3.22961 -0.236098,6.52383 -0.135392,9.8764 l -4.587833,0.20154 c -2.613805,0.128 -4.103359,3.01811 -2.698543,5.22552 l 11.972395,18.81229 c 1.405568,2.20417 4.672142,2.05838 5.873544,-0.26355 l 10.292398,-19.79103 c 1.04197,-2.56924 -0.68063,-4.9893 -3.13521,-4.93458 l -4.855509,0.20464 -0.07338,0.003 c -0.109837,-3.96032 0.01648,-7.77702 0.364836,-11.4639 12.269393,-1.0368 25.151016,0.57597 37.782196,5.38417 -7.17511,22.44945 -28.038253,37.68688 -51.606675,37.69021 -31.632873,0.004 -54.361869,-25.64743 -54.095922,-53.75486 17.161968,2.62283 32.427257,-1.76626 42.64029,-11.81168 3.26757,-3.2136 5.922362,-6.97912 7.98866,-11.14144 l 4.904094,1.00046 c 2.565617,0.52736 4.735391,-1.9216 3.902604,-4.40593 L 66.180455,312.164 c -0.736409,-2.57383 -4.07476,-3.06032 -5.741252,-1.1777 l -14.790311,16.70854 c -1.727615,1.95585 -0.691666,5.04872 1.865519,5.56968 l 3.848862,0.78497 c -1.128371,1.70587 -2.405732,3.27096 -3.830259,4.67206 -7.117104,6.99944 -18.20259,10.61672 -32.240925,8.26255 5.669077,-24.43901 27.43402,-41.86306 52.63968,-41.92819 z m 38.986251,16.55868 v 0.004 c 9.74862,10.09895 15.19819,23.58756 15.20062,37.62405 -0.005,1.25696 -0.0538,2.51669 -0.14572,3.77032 -11.26178,-4.00589 -22.715903,-5.85056 -33.879593,-5.76813 -1.33675,0 -2.668,0.077 -3.995619,0.12816 3.657239,-13.27361 10.946969,-24.92179 22.820312,-35.75854 z" />
    </g>
    <text
       xml:space="preserve"
       transform="matrix(0.26458333,0,0,0.26458333,0.19843613,291.49498)"
       id="text32193"
       style="font-style:normal;font-weight:normal;font-size:40px;line-height:1.25;font-family:sans-serif;white-space:pre;shape-inside:url(#rect32195);fill:#000000;fill-opacity:1;stroke:none" />
  </g>
</svg>
